<svg width="79" height="11" viewBox="0 0 79 11" fill="none" xmlns="http://www.w3.org/2000/svg">
<path fill-rule="evenodd" clip-rule="evenodd" d="M28.3528 5.4997C28.3528 2.71878 29.7758 0.494141 32.3418 0.494141C34.9084 0.494141 36.3308 2.71878 36.3308 5.4997C36.3308 8.28109 34.9079 10.5053 32.3423 10.5053C29.7758 10.5053 28.3528 8.28109 28.3528 5.4997ZM32.3418 9.11692C33.3399 9.11692 33.7648 7.44808 33.7648 5.50347C33.7648 3.55792 33.3366 1.89003 32.3418 1.89003C31.3471 1.89003 30.9189 3.55839 30.9189 5.50347C30.9155 7.44808 31.3437 9.11692 32.3418 9.11692ZM1.8512 0.635807V3.27836H1.99282L3.84402 0.635807H6.40671L2.98755 3.69297L3.12917 3.83133L9.39811 0.632502V2.85714L3.84065 4.80222V4.94011L9.39811 4.45467V6.54142L3.84065 6.05597V6.19434L9.39811 8.13895V10.3641L3.12917 7.16475L2.98755 7.30311L6.40671 10.3603H3.84402L1.99282 7.71772H1.8512V10.3603H0V0.629196H1.8512V0.635807ZM11.1144 0.635807H13.536L13.3944 6.47389H13.536L16.3853 0.635807H18.5231V10.3674H16.102L16.2437 4.52881H16.102L13.2518 10.3678H11.114V0.635807H11.1144ZM22.6537 0.635807H20.2327V10.3674H22.6537V6.05597H24.6466V10.3674H27.0676V0.635807H24.6466V4.39092H22.6537V0.635807ZM44.451 0.635807H37.6156V10.3674H40.0371V2.30417H42.0299V10.3674H44.451V0.635807ZM45.7323 5.4997C45.7323 2.71878 47.1553 0.494141 49.7218 0.494141C52.2845 0.494141 53.7108 2.71878 53.7108 5.4997C53.7108 8.28109 52.2879 10.5053 49.7218 10.5053C47.1591 10.5053 45.7323 8.28109 45.7323 5.4997ZM49.7218 9.11692C50.7199 9.11692 51.1448 7.44808 51.1448 5.50347C51.1448 3.55792 50.7166 1.89003 49.7218 1.89003C48.7237 1.89003 48.2989 3.55839 48.2989 5.50347C48.2989 7.44808 48.7237 9.11692 49.7218 9.11692ZM57.4132 0.635807H54.9922V10.3674H57.13L59.9798 4.52881H60.1214L59.9798 10.3674H62.4008V0.635807H60.263L57.4132 6.47389H57.2716L57.4132 0.635807ZM68.8148 7.03017L71.0942 7.30642C70.666 9.25197 69.6713 10.5053 67.5469 10.5053C64.9842 10.5053 63.6856 8.28109 63.6856 5.4997C63.6856 2.71878 64.9809 0.494141 67.5469 0.494141C69.6265 0.494141 70.666 1.74506 71.0942 3.55178L68.8148 4.10758C68.6732 3.13339 68.2584 1.88342 67.5469 1.88342C66.6938 1.88342 66.2516 3.55178 66.2516 5.49639C66.2516 7.42778 66.6938 9.10984 67.5469 9.10984C68.2449 9.11692 68.6693 8.00436 68.8148 7.03017ZM74.5134 0.63628H72.2339V10.3674H74.5134V6.05597H74.655L76.3646 10.3674H79L76.5062 5.36181L78.9273 0.635807H76.5062L74.655 4.9472H74.5134V0.635807V0.63628Z" fill="#747587"/>
</svg>
